Normalized EMG Linear Envelopes
nRows=21
nColumns=17

endheader
time	        VM	        VL	        RF	       GRA	        TA	   ADDLONG	   SEMIMEM	      BFLH	        GM	        GL	       TFL	   GLUTMAX	   GLUTMED	      PIRI	    OBTINT	        QF	
2.3125	  0.071143	  0.045712	  0.189936	  0.131554	  0.213955	  0.047628	  0.024950	  0.022312	  0.024287	  0.020280	  0.060469	  0.021343	  0.117985	  0.404653	  0.483165	  0.290055	
2.313	  0.070521	  0.045816	  0.190878	  0.129188	  0.213161	  0.047017	  0.024389	  0.021547	  0.024159	  0.020211	  0.059358	  0.021228	  0.118186	  0.405148	  0.486739	  0.291325	
2.3135	  0.069892	  0.045913	  0.191810	  0.126838	  0.212348	  0.046407	  0.023842	  0.020796	  0.024027	  0.020140	  0.058261	  0.021117	  0.118399	  0.405574	  0.490281	  0.292583	
2.314	  0.069259	  0.046003	  0.192731	  0.124506	  0.211515	  0.045797	  0.023307	  0.020059	  0.023890	  0.020068	  0.057180	  0.021009	  0.118626	  0.405931	  0.493788	  0.293831	
2.3145	  0.068621	  0.046085	  0.193638	  0.122191	  0.210661	  0.045189	  0.022787	  0.019337	  0.023749	  0.019993	  0.056115	  0.020904	  0.118865	  0.406218	  0.497259	  0.295069	
2.315	  0.067978	  0.046160	  0.194530	  0.119895	  0.209786	  0.044582	  0.022281	  0.018630	  0.023604	  0.019917	  0.055064	  0.020802	  0.119117	  0.406437	  0.500693	  0.296297	
2.3155	  0.067330	  0.046228	  0.195405	  0.117618	  0.208891	  0.043977	  0.021790	  0.017938	  0.023454	  0.019840	  0.054029	  0.020704	  0.119381	  0.406586	  0.504088	  0.297516	
2.316	  0.066679	  0.046289	  0.196263	  0.115360	  0.207973	  0.043374	  0.021314	  0.017262	  0.023300	  0.019760	  0.053008	  0.020609	  0.119659	  0.406665	  0.507442	  0.298724	
2.3165	  0.066024	  0.046342	  0.197100	  0.113122	  0.207033	  0.042772	  0.020853	  0.016602	  0.023142	  0.019679	  0.052003	  0.020518	  0.119950	  0.406676	  0.510754	  0.299924	
2.317	  0.065365	  0.046389	  0.197916	  0.110906	  0.206071	  0.042173	  0.020408	  0.015958	  0.022979	  0.019596	  0.051012	  0.020430	  0.120253	  0.406617	  0.514021	  0.301114	
2.3175	  0.064703	  0.046427	  0.198709	  0.108710	  0.205086	  0.041577	  0.019980	  0.015331	  0.022812	  0.019511	  0.050036	  0.020346	  0.120569	  0.406488	  0.517241	  0.302295	
2.318	  0.064038	  0.046459	  0.199476	  0.106536	  0.204077	  0.040983	  0.019567	  0.014721	  0.022641	  0.019425	  0.049075	  0.020265	  0.120898	  0.406291	  0.520412	  0.303468	
2.3185	  0.063370	  0.046483	  0.200217	  0.104384	  0.203045	  0.040392	  0.019172	  0.014128	  0.022465	  0.019337	  0.048129	  0.020189	  0.121239	  0.406024	  0.523531	  0.304631	
2.319	  0.062700	  0.046500	  0.200929	  0.102254	  0.201990	  0.039804	  0.018794	  0.013552	  0.022285	  0.019246	  0.047197	  0.020116	  0.121592	  0.405688	  0.526595	  0.305786	
2.3195	  0.062027	  0.046509	  0.201611	  0.100147	  0.200911	  0.039219	  0.018434	  0.012994	  0.022100	  0.019155	  0.046280	  0.020048	  0.121958	  0.405282	  0.529602	  0.306933	
2.32	  0.061352	  0.046511	  0.202262	  0.098064	  0.199808	  0.038638	  0.018092	  0.012455	  0.021912	  0.019061	  0.045377	  0.019983	  0.122335	  0.404806	  0.532550	  0.308071	
2.3205	  0.060676	  0.046506	  0.202881	  0.096005	  0.198682	  0.038060	  0.017768	  0.011934	  0.021719	  0.018966	  0.044488	  0.019923	  0.122724	  0.404261	  0.535435	  0.309200	
2.321	  0.059997	  0.046493	  0.203466	  0.093970	  0.197531	  0.037485	  0.017462	  0.011431	  0.021522	  0.018869	  0.043614	  0.019866	  0.123124	  0.403646	  0.538255	  0.310321	
2.3215	  0.059318	  0.046472	  0.204017	  0.091960	  0.196357	  0.036915	  0.017176	  0.010948	  0.021321	  0.018771	  0.042755	  0.019815	  0.123535	  0.402961	  0.541007	  0.311434	
2.322	  0.058637	  0.046444	  0.204534	  0.089975	  0.195158	  0.036348	  0.016909	  0.010483	  0.021116	  0.018671	  0.041909	  0.019767	  0.123957	  0.402209	  0.543688	  0.312538	
2.3225	  0.057956	  0.046409	  0.205014	  0.088015	  0.193935	  0.035785	  0.016662	  0.010039	  0.020907	  0.018569	  0.041077	  0.019724	  0.124389	  0.401389	  0.546296	  0.313634	
